<?xml version="1.0" encoding="UTF-8" standalone="no"?>
<svg 
    id="mappage-icon" 
    version="1.1" 
    viewBox="0 -20 576 556" 
    xmlns="http://www.w3.org/2000/svg" 
    xmlns:svg="http://www.w3.org/2000/svg"
    xmlns:rdf="http://www.w3.org/1999/02/22-rdf-syntax-ns#" 
    xmlns:cc="http://creativecommons.org/ns#"
    xmlns:dc="http://purl.org/dc/elements/1.1/">
    <metadata id="metadata">
        <rdf:RDF>
            <cc:Work>
                <dc:format>image/svg+xml</dc:format>
                <dc:type rdf:resource="http://purl.org/dc/dcmitype/StillImage" />
            </cc:Work>
        </rdf:RDF>
    </metadata>
    <g id="icon">
        <path id="pin" style="fill:#545454;fill-opacity:0.6" d="M 408 120 c 0 54.6-73.1 151.9-105.2 192 c -7.7 9.6-22 9.6-29.6 0 C 241.1 271.9 168 174.6 168 120 C 168 53.7 221.7 0 288 0 s 120 53.7 120 120 z"/>
        <path id="hole" style="fill:#545454;fill-opacity:0.8" d="M 288 152 a 40 40 0 1 0 0-80 40 40 0 1 0 0 80 z" />
        <path id="left-page" style="fill:#307c80;fill-opacity:0.8" d="M 137.6 138.3 c 2.4 14.1 7.2 28.3 12.8 41.5 c 2.9 6.8 6.1 13.7 9.6 20.6 V 451.8 L 32.9 502.7 C 17.1 509 0 497.4 0 480.4 V 209.6 c 0-9.8 6-18.6 15.1-22.3 l 122.6-49 z" />
        <path id="middle-page" style="fill:#307c80;fill-opacity:0.4" d="M 327.8 332 c 13.9-17.4 35.7-45.7 56.2-77 V 504.3 L 192 449.4 V 255 c 20.5 31.3 42.3 59.6 56.2 77 c 20.5 25.6 59.1 25.6 79.6 0 z" />
        <path id="right-page" style="fill:#307c80;fill-opacity:0.6" d="M 416 200 c 3.5-6.9 6.7-13.8 9.6-20.6 c .5-1.2 1-2.5 1.5-3.7 l 116-46.4 C 558.9 123.4 576 135 576 152 V 422.8 c 0 9.8-6 18.6-15.1 22.3 L 416 503 V 200.4 z" />
    </g>
</svg>